<mxfile host="app.diagrams.net" agent="Mozilla/5.0 (Windows NT 10.0; Win64; x64) AppleWebKit/537.36 (KHTML, like Gecko) Chrome/141.0.0.0 Safari/537.36" version="28.2.5">
  <diagram name="Page-1" id="Mr_E_5sqD-BaVxEt2iTo">
    <mxGraphModel dx="1391" dy="760" grid="1" gridSize="10" guides="1" tooltips="1" connect="1" arrows="1" fold="1" page="1" pageScale="1" pageWidth="850" pageHeight="1100" math="0" shadow="0">
      <root>
        <mxCell id="0" />
        <mxCell id="1" parent="0" />
        <mxCell id="dxDlNBaQf737swC0luWH-1" value="Loop" style="shape=umlFrame;whiteSpace=wrap;html=1;pointerEvents=0;" vertex="1" parent="1">
          <mxGeometry x="-30" y="220" width="550" height="120" as="geometry" />
        </mxCell>
        <mxCell id="JolaftL9WweIg05NDyTi-1" value=":UnregisteredUser" style="shape=umlLifeline;perimeter=lifelinePerimeter;whiteSpace=wrap;html=1;container=1;dropTarget=0;collapsible=0;recursiveResize=0;outlineConnect=0;portConstraint=eastwest;newEdgeStyle={&quot;curved&quot;:0,&quot;rounded&quot;:0};" parent="1" vertex="1">
          <mxGeometry x="50" y="140" width="100" height="820" as="geometry" />
        </mxCell>
        <mxCell id="JolaftL9WweIg05NDyTi-2" value=":UserService" style="shape=umlLifeline;perimeter=lifelinePerimeter;whiteSpace=wrap;html=1;container=1;dropTarget=0;collapsible=0;recursiveResize=0;outlineConnect=0;portConstraint=eastwest;newEdgeStyle={&quot;curved&quot;:0,&quot;rounded&quot;:0};" parent="1" vertex="1">
          <mxGeometry x="380" y="140" width="100" height="820" as="geometry" />
        </mxCell>
        <mxCell id="dxDlNBaQf737swC0luWH-2" value="checkUsernameAvailable" style="html=1;verticalAlign=bottom;endArrow=block;curved=0;rounded=0;entryX=0.519;entryY=0.35;entryDx=0;entryDy=0;entryPerimeter=0;" edge="1" parent="1">
          <mxGeometry width="80" relative="1" as="geometry">
            <mxPoint x="99.81034482758605" y="250" as="sourcePoint" />
            <mxPoint x="431.9000000000001" y="250" as="targetPoint" />
          </mxGeometry>
        </mxCell>
        <mxCell id="dxDlNBaQf737swC0luWH-3" value="usernameAvailableResponse" style="html=1;verticalAlign=bottom;endArrow=open;dashed=1;endSize=8;curved=0;rounded=0;entryX=0.487;entryY=0.193;entryDx=0;entryDy=0;entryPerimeter=0;" edge="1" parent="1" source="JolaftL9WweIg05NDyTi-2" target="JolaftL9WweIg05NDyTi-1">
          <mxGeometry relative="1" as="geometry">
            <mxPoint x="424.69" y="300" as="sourcePoint" />
            <mxPoint x="95.00034482758605" y="300" as="targetPoint" />
          </mxGeometry>
        </mxCell>
        <mxCell id="dxDlNBaQf737swC0luWH-4" value="[Can check multiple usernames]" style="text;html=1;align=left;verticalAlign=middle;whiteSpace=wrap;rounded=0;" vertex="1" parent="1">
          <mxGeometry x="-20" y="250" width="100" height="60" as="geometry" />
        </mxCell>
        <mxCell id="dxDlNBaQf737swC0luWH-5" value="createUser" style="html=1;verticalAlign=bottom;endArrow=block;curved=0;rounded=0;entryX=0.519;entryY=0.35;entryDx=0;entryDy=0;entryPerimeter=0;" edge="1" parent="1">
          <mxGeometry width="80" relative="1" as="geometry">
            <mxPoint x="100" y="400" as="sourcePoint" />
            <mxPoint x="432.08965517241404" y="400" as="targetPoint" />
          </mxGeometry>
        </mxCell>
        <mxCell id="dxDlNBaQf737swC0luWH-6" value="confirmation" style="html=1;verticalAlign=bottom;endArrow=open;dashed=1;endSize=8;curved=0;rounded=0;entryX=0.487;entryY=0.193;entryDx=0;entryDy=0;entryPerimeter=0;" edge="1" parent="1">
          <mxGeometry relative="1" as="geometry">
            <mxPoint x="431" y="450" as="sourcePoint" />
            <mxPoint x="100" y="450" as="targetPoint" />
          </mxGeometry>
        </mxCell>
      </root>
    </mxGraphModel>
  </diagram>
</mxfile>
